<svg xmlns="http://www.w3.org/2000/svg" viewBox="0 0 110 56">
  <defs>
    <linearGradient id="a" x1="50%" x2="50%" y1=".814%" y2="100.1%">
      <stop offset="26.55%" stop-color="#FF1908"/>
      <stop offset="100%" stop-color="#CC1D11"/>
    </linearGradient>
    <linearGradient id="b" x1="50%" x2="50%" y1="1.895%" y2="98.662%">
      <stop offset=".066%" stop-color="#FFD500"/>
      <stop offset="100%" stop-color="#FA0"/>
    </linearGradient>
    <linearGradient id="c" x1="50.018%" x2="50.018%" y1="-44.673%" y2="67.05%">
      <stop offset=".066%" stop-color="#FFD500"/>
      <stop offset="100%" stop-color="#FA0"/>
    </linearGradient>
    <linearGradient id="d" x1="50.048%" x2="50.048%" y1="-127.083%"
                    y2="533.044%">
      <stop offset=".066%" stop-color="#FFD500"/>
      <stop offset="100%" stop-color="#FA0"/>
    </linearGradient>
    <linearGradient id="e" x1="50.165%" x2="50.165%" y1="-112.42%"
                    y2="190.389%">
      <stop offset=".066%" stop-color="#FFD500"/>
      <stop offset="100%" stop-color="#FA0"/>
    </linearGradient>
    <linearGradient id="f" x1="49.819%" x2="49.819%" y1="-78.055%" y2="417.04%">
      <stop offset=".066%" stop-color="#FFD500"/>
      <stop offset="100%" stop-color="#FA0"/>
    </linearGradient>
  </defs>
  <g fill="none" fill-rule="evenodd">
    <path fill="url(#a)" fill-rule="nonzero" d="M0 0h56v110H0z"
          transform="rotate(-90 28 28)"/>
    <path fill="#A1001E" fill-rule="nonzero"
          d="M12.06 56a9.485 9.485 0 003.73-7.53V7.53A9.485 9.485 0 0012.06 0H0v56h12.06z"/>
    <path fill="#A1001E" fill-rule="nonzero"
          d="M19.76 20.77c-.98-.53-3.09-.83-4.24-.83-4.15 0-7.52 3.82-7.52 8.53C8 33.18 11.37 37 15.52 37c1.16 0 3.27-.3 4.24-.83v-15.4z"/>
    <path stroke="#C40024" stroke-linecap="round" stroke-linejoin="round"
          stroke-width="1.915" d="M19.5 39V16.66"/>
    <path fill="url(#b)" fill-rule="nonzero"
          d="M27.51 38.84c9.76 0 17.67 7.91 17.67 17.67 0 9.76-7.91 17.66-17.67 17.66-9.76 0-17.67-7.91-17.67-17.67 0-9.76 7.91-17.66 17.67-17.66m0-2.84C16.2 36 7 45.2 7 56.51c0 11.31 9.2 20.5 20.51 20.5 11.31 0 20.51-9.2 20.51-20.51 0-11.31-9.2-20.5-20.51-20.5z"
          transform="rotate(-90 28 28)"/>
    <g fill-rule="nonzero">
      <path fill="url(#c)"
            d="M1.06 19.46c.28 0 .81-.09 2.23-.91 1.18-.69 2.3-1.54 3.34-2.53.23-.23.48-.48.74-.76.02.28.03.56.03.84-.02 3-.19 4.97-.52 5.89l-.03.11c-.13.45-.21.7-.23.9-.01.42.18 1.06.58 2 .11.28.43 1.12 1.09 1.12.59 0 .83-.79.9-1.02.28-.75.41-1.35.41-1.83l-.11-3.53c.02-2.04.09-3.1.16-3.64.2.2.42.44.67.72.49.57.89.94 1.2 1.12.25.17.44.24.62.24.36 0 .65-.17.91-.58.14-.38.21-.68.21-.95.12.54.23 1.47.35 2.9l.3 2.75c.02.47.18.92.46 1.3.16.25.42.59.82.59.3 0 .54-.18.71-.54.04-.08.08-.18.11-.28.51.09 1.2.04 2.38-.05l4.27-.28c.43-.04.88-.07 1.35-.09.21.45.43 1.01.67 1.69.12.34.29.57.51.68v.06h.16c.06.01.12.02.18.02h.4v-.08c.4-.13.81-.48 1.25-1.04.62-.79.97-2 1.07-3.59l.25-3.23c.08-.9.21-1.59.36-1.99.16-.31.24-.57.24-.78 0-.42-.31-.84-.94-1.27-1.51-.99-1.76-1.06-1.96-1.06-.05 0-.17 0-.58.15-.39.12-.76.21-1.1.28-8.2 1.11-9.42 1.24-9.53 1.24-.12-.01-.29-.04-.56-.1l-.55-.18-.13-.02s-.21 0-.64-.01c-.47 0-.78.33-.77.79-.04.26.14.44.28.57.22.29.38.61.49.95-.05-.1-.12-.2-.2-.29-.26-.27-.76-.55-1.53-.85-.53-.18-1.05-.33-1.58-.47-.11-.25-.33-.61-.72-1.14.57-.71 1.18-1.51 1.82-2.4.48-.62 1-1.15 1.56-1.58.62-.49.88-.85.88-1.19 0-.45-.39-.9-1.24-1.41l-.02-.01c-1.11-.6-1.4-.6-1.51-.6-.21 0-.49.09-.85.28-.94.46-1.84.76-2.78.93-1.22.34-2.65.57-4.26.68-.68.06-1.03.3-1.03.69-.02.5.52.87 1.07 1.17.57.28 1.02.42 1.37.42.2 0 .54-.08.99-.24 1.31-.35 2.63-.76 3.91-1.19.13-.04.25-.07.35-.09-.13.2-.35.52-.72 1.01-1.87 2.63-3.18 4.34-4.04 5.22A26.57 26.57 0 01.59 18.7l-.15.11V19c0 .04.03.46.62.46zm24.31 1.68l-.65-.32-.62-.04c-.41 0-1.21.06-2.19.17l-.48.06.03-1.95c.85-.1 1.43-.16 1.73-.2.57-.05 1.27-.11 2.14-.18.08-.02.18-.04.28-.06-.05 1.07-.13 1.91-.24 2.52zm-3.79-6.2c1.42-.11 2.53-.18 3.16-.18.47.01.68.07.77.11.09.24.18.69.17 1.58v.4c-.03-.01-.05-.02-.08-.03l-.04-.01c-.73-.17-1.17-.25-1.43-.25-.07 0-.22.02-1.01.12l-.15.02c-.48.08-.97.16-1.46.23v-.05c0-.2.04-.46.11-.81.08-.23.12-.44.12-.66-.02-.17-.07-.32-.16-.47zm-4.84 4.54c.46.01 1.18-.04 2.25-.14l.13 1.91c-.98.08-2 .15-3.04.19-.02-.57-.06-1.24-.12-2.01.24.04.5.05.78.05zm2.05-3.24l.07 1.04c-.95.12-1.92.22-2.89.32-.04 0-.08 0-.13.01l-.09-1.08c-.02-.25-.03-.49-.04-.73.15-.03.32-.07.53-.12.65-.13 1.38-.26 2.17-.37.04.05.08.11.13.17.14.27.23.53.25.76z"
            transform="rotate(-90 43 0)"/>
      <path fill="url(#d)"
            d="M14.92 4.49c.39.22 1.03.34 1.95.35.73 0 2.2-.16 4.68-.53 1.64-.27 2.62-.48 3.04-.64.73-.17.88-.51.88-.77 0-.28-.14-.67-.78-.96-.62-.32-1.13-.48-1.55-.49-.13 0-.28.04-.61.16-.68.22-1.58.44-2.69.65-1.62.32-3.1.55-4.38.67-.43.02-1.22.04-1.22.62.01.31.22.61.68.94z"
            transform="rotate(-90 43 0)"/>
      <path fill="url(#e)"
            d="M14.56 8.09c.24.17.4.35.47.58.06.13.19.47.31 1.26l.26 1.16c.01.42.15.83.41 1.2.43.72 1.11.73 1.44.05l.03-.06c.38.02.9-.02 1.55-.1l3.14-.29c.73-.09 1.45-.13 2.18-.12.5 0 .67-.32.67-.56.01-.22-.09-.41-.25-.59 0-.01.01-.02.01-.03.27-.85.56-1.57.84-2.11.11-.25.24-.43.42-.56.19-.16.36-.33.36-.55.02-.38-.31-.76-1.13-1.34l-.87-.57h-.11s-.13 0-.39-.01c-.22 0-.56.07-1 .2-.98.26-2.1.5-3.32.71-1.29.2-2.47.33-3.48.39h-.41c-.15.01-.27.04-.37.08-.09 0-.23 0-.39-.01-.36 0-.75.21-.75.8.03.3.25.41.38.47zm7.91-.55c.4 0 .51.08.52.08 0 .25-.07.66-.2 1.22-.07.33-.14.63-.22.9-.3.02-.73.08-1.3.17-1.17.22-2.41.38-3.68.48-.05-.43-.12-.97-.22-1.62-.02-.12-.03-.24-.03-.36.48-.08 1.23-.22 2.44-.45 1.83-.35 2.47-.42 2.69-.42z"
            transform="rotate(-90 43 0)"/>
      <path fill="url(#f)"
            d="M9.38 4.75c.4.3.77.44 1.12.44.39 0 .71-.11.95-.34.27-.27.42-.67.42-1.22 0-.74-.28-1.34-.88-1.81-.56-.33-1.37-.64-2.49-.92C8.08.77 7.65.69 7.18.67c-.16 0-.54.05-.67.56l-.01.1c0 .18.09.35.29.56 1.11 1.47 1.96 2.4 2.59 2.86z"
            transform="rotate(-90 43 0)"/>
    </g>
  </g>
</svg>
